<?xml version="1.0" encoding="UTF-8" standalone="no"?>
<svg
   xmlns:dc="http://purl.org/dc/elements/1.1/"
   xmlns:cc="http://creativecommons.org/ns#"
   xmlns:rdf="http://www.w3.org/1999/02/22-rdf-syntax-ns#"
   xmlns:svg="http://www.w3.org/2000/svg"
   xmlns="http://www.w3.org/2000/svg"
   xmlns:sodipodi="http://sodipodi.sourceforge.net/DTD/sodipodi-0.dtd"
   xmlns:inkscape="http://www.inkscape.org/namespaces/inkscape"
   version="1.1"
   x="0px"
   y="0px"
   viewBox="0 0 86.75 86.749998"
   enable-background="new 0 0 86.75 77.914"
   xml:space="preserve"
   id="svg2"
   inkscape:version="0.91 r13725"
   sodipodi:docname="noun_15790_cc.svg"
   width="86.75"
   height="86.75"
   inkscape:export-filename="V:\pictures\noun_15790_cc-green-offset.png"
   inkscape:export-xdpi="66.397697"
   inkscape:export-ydpi="66.397697"><metadata
     id="metadata20"><rdf:RDF><cc:Work
         rdf:about=""><dc:format>image/svg+xml</dc:format><dc:type
           rdf:resource="http://purl.org/dc/dcmitype/StillImage" /><dc:title></dc:title></cc:Work></rdf:RDF></metadata><defs
     id="defs18" /><sodipodi:namedview
     pagecolor="#ffffff"
     bordercolor="#666666"
     borderopacity="1"
     objecttolerance="10"
     gridtolerance="10"
     guidetolerance="10"
     inkscape:pageopacity="0"
     inkscape:pageshadow="2"
     inkscape:window-width="1858"
     inkscape:window-height="1057"
     id="namedview16"
     showgrid="false"
     inkscape:zoom="2.4231845"
     inkscape:cx="34.374281"
     inkscape:cy="55.270685"
     inkscape:window-x="54"
     inkscape:window-y="-8"
     inkscape:window-maximized="1"
     inkscape:current-layer="svg2"><inkscape:grid
       type="xygrid"
       id="grid4150" /></sodipodi:namedview><path
     sodipodi:type="inkscape:offset"
     inkscape:radius="-1.5968281"
     inkscape:original="M 35.136719 4.8671875 C 33.669048 4.9844893 31.711611 5.4731607 30.001953 6.1601562 C 30.001953 6.1601562 34.384766 11.552672 34.384766 14.263672 C 26.502766 11.521672 18.986375 10.897641 13.109375 17.431641 C 23.278375 16.623641 27.848547 16.278609 31.435547 18.974609 C 28.488547 20.580609 25.017391 23.409766 25.400391 33.009766 C 40.181391 18.231766 46.570656 18.232766 61.347656 33.009766 C 61.730656 23.410766 58.257547 20.580609 55.310547 18.974609 C 58.898547 16.278609 63.467719 16.623641 73.636719 17.431641 C 67.759719 10.897641 60.245328 11.521672 52.361328 14.263672 C 52.361328 11.590672 56.662109 6.2460938 56.662109 6.2460938 C 55.125071 5.6516215 53.387414 5.2030539 51.613281 4.9003906 C 49.136281 5.8283906 46.768656 8.400625 45.222656 11.140625 C 43.717656 10.609625 43.132953 10.609625 41.626953 11.140625 C 40.060953 8.363625 37.649719 5.7641875 35.136719 4.8671875 z M 43.419922 12.265625 C 44.207547 12.256625 44.985703 12.436531 45.283203 12.832031 C 45.863203 13.607031 45.28125 16.816406 45.28125 16.816406 L 41.5 16.816406 C 41.5 16.816406 40.845 13.537031 41.5 12.832031 C 41.834 12.472531 42.632297 12.274625 43.419922 12.265625 z "
     style="opacity:1;fill:#bad35f;fill-opacity:1;stroke:none;stroke-width:1.77165353;stroke-miterlimit:4;stroke-dasharray:none;stroke-opacity:1"
     id="path4199"
     d="m 34.869141,6.5585938 c -0.62986,0.074536 -1.425746,0.352472 -2.207032,0.5605468 0.372502,0.5098357 0.434316,0.5345447 0.871094,1.2070313 1.14891,1.7689241 2.449219,3.7214811 2.449219,5.9375001 a 1.5969878,1.5969878 0 0 1 -2.123047,1.507812 c -3.827733,-1.331596 -7.471106,-2.099967 -10.724609,-1.8125 -1.868543,0.165098 -3.60676,0.706071 -5.267578,1.65625 2.39316,-0.151559 5.170895,-0.413763 6.957031,-0.320312 3.040238,0.159065 5.490287,0.83899 7.570312,2.402344 a 1.5969878,1.5969878 0 0 1 -0.195312,2.679687 c -1.358861,0.740526 -2.634713,1.621308 -3.638672,3.402344 -0.662932,1.176048 -1.091934,3.048503 -1.335938,5.333984 6.017379,-5.601802 10.957577,-8.783326 16.150391,-8.783203 5.192073,1.23e-4 10.131769,3.181226 16.146484,8.78125 C 59.27723,26.827023 58.850557,24.955154 58.1875,23.779297 57.183083,21.998076 55.905744,21.117484 54.546875,20.376953 a 1.5969878,1.5969878 0 0 1 -0.195313,-2.679687 c 2.080403,-1.563201 4.530193,-2.243278 7.570313,-2.402344 1.786066,-0.09345 4.563954,0.168753 6.957031,0.320312 -1.660655,-0.950174 -3.399196,-1.491155 -5.267578,-1.65625 -3.253223,-0.287463 -6.895779,0.48086 -10.724609,1.8125 a 1.5969878,1.5969878 0 0 1 -2.123047,-1.507812 c 0,-2.192917 1.278593,-4.123234 2.40625,-5.8750001 0.430066,-0.6680892 0.491042,-0.6931513 0.857422,-1.1992188 -0.718848,-0.2000576 -1.396812,-0.4311488 -2.160156,-0.5761719 -1.819096,0.8237201 -3.91389,2.9375675 -5.253907,5.3124998 a 1.5969878,1.5969878 0 0 1 -0.02344,0.03711 c 0.462232,0.668527 0.497544,1.201321 0.53125,1.71289 0.03543,0.537826 0.01102,1.071647 -0.0293,1.56836 -0.08064,0.993425 -0.240235,1.857421 -0.240235,1.857421 a 1.5969878,1.5969878 0 0 1 -1.570312,1.3125 l -3.78125,0 a 1.5969878,1.5969878 0 0 1 -1.566406,-1.285156 c 0,0 -0.178275,-0.884475 -0.269532,-1.896484 -0.04563,-0.506005 -0.07496,-1.048524 -0.0332,-1.601563 0.0382,-0.505918 0.08562,-1.066956 0.59961,-1.71289 C 38.863696,9.4979999 36.711974,7.3446165 34.869141,6.5585938 Z" /><path
     id="path4148"
     d="m 43.375,64.00903 c -0.026,0 -0.051,-0.004 -0.077,-0.004 l 3.995,3.439 -8.068,0 3.998,-3.439 c -16.596,-0.041 -32.049917,-5.922464 -41.8950001,-16.611 0.554,20.205502 17.4573001,35.148531 42.4347621,35.148531 24.070929,0 41.119238,-14.943029 41.659238,-35.147531 -10.408,10.208 -25.392,16.614 -42.047,16.614 z"
     style="fill:#ff5555"
     inkscape:connector-curvature="0"
     sodipodi:nodetypes="scccccscs" /><path
     d="m 41.627,11.14103 c 1.506,-0.531 2.09,-0.531 3.595,0 C 46.768,8.4010302 49.137,5.8290302 51.614,4.9010302 46.468,3.98603 40.316,3.97803 35.136,4.8670302 c 2.513,0.897 4.925,3.497 6.491,6.2739998 z"
     id="path6"
     style="fill:#ff5555"
     inkscape:connector-curvature="0" /><path
     d="m 45.281796,16.81603 -3.781,0 c 0,0 -0.655,-3.279 0,-3.984 0.668,-0.719 3.187,-0.791 3.782,0 0.58,0.775 -10e-4,3.984 -10e-4,3.984 z"
     id="path8"
     style="fill:#ff5555"
     inkscape:connector-curvature="0" /><text
     x="0.82536018"
     y="95.064575"
     font-size="5px"
     font-weight="bold"
     id="text12"
     style="font-weight:bold;font-size:5px;font-family:'Helvetica Neue', Helvetica, Arial-Unicode, Arial, Sans-serif;fill:#000000">Created by José Campos</text>
<text
     x="0.82536018"
     y="100.06458"
     font-size="5px"
     font-weight="bold"
     id="text14"
     style="font-weight:bold;font-size:5px;font-family:'Helvetica Neue', Helvetica, Arial-Unicode, Arial, Sans-serif;fill:#000000">from the Noun Project</text>
<path
     d="m 83.446447,26.12003 c 3,-3 -12,-23 -26,-14 4.919914,-3.1806774 4.275713,-3.9227492 -0.785,-5.8729998 -1.938,1.999 -4.3,5.3429998 -4.3,8.0159998 7.884,-2.742 15.398,-3.365 21.275,3.169 -10.169,-0.808 -14.738,-1.153 -18.326,1.543 2.947,1.606 6.42,4.435 6.037,14.034 -14.777,-14.777 -21.167,-14.778 -35.948,0 -0.383,-9.6 3.089,-12.428 6.036,-14.034 -3.587,-2.696 -8.157,-2.351 -18.326,-1.543 5.877,-6.534 13.394,-5.911 21.276,-3.169 0,-2.711 -2.429,-6.1129998 -4.383,-8.1019998 -2.151,0.778 -3.865,1.789 -4.873,3.031 0.968,0.535 1.808,0.9549998 4.175,2.9279998 -14,-9 -29.00000034,11 -26.0000003,14 -4.711,2.355 -3.25800004,13.955 -2.41500004,18.831 1.13800004,1.143 2.34300004,2.229 3.59000004,3.276 l 0,-3.445 1,0.878 0,3.391 c 4.8190003,3.855 10.3730003,6.988 16.4540003,9.207 l 0,-3.206 1,0.405 0,3.153 c 6.23,2.149 12.987,3.349 20.055,3.39 l 0,-2.71 1.001,0 0,2.704 c 16.646,-0.16 31.574,-6.709 41.869,-17.045 0.845,-4.872 2.299,-16.473 -2.412,-18.829 z"
     id="path10"
     style="fill:#ff5555"
     inkscape:connector-curvature="0"
     sodipodi:nodetypes="cccccccccccccccccccccccccccccc" /><text
     style="font-weight:bold;font-size:5px;font-family:'Helvetica Neue', Helvetica, Arial-Unicode, Arial, Sans-serif;fill:#000000"
     id="text4205"
     font-weight="bold"
     font-size="5px"
     y="105.31714"
     x="0.82536018">https://thenounproject.com/term/tomato/15790</text>
</svg>